<?xml version="1.0" standalone="no"?>
<!DOCTYPE svg PUBLIC "-//W3C//DTD SVG 1.1//EN" "http://www.w3.org/Graphics/SVG/1.1/DTD/svg11.dtd">
<svg xmlns="http://www.w3.org/2000/svg">
<defs >
<font id="HankenGrotesk" horiz-adv-x="545" ><font-face
    font-family="Hanken Grotesk"
    units-per-em="1000"
    panose-1="0 0 0 0 0 0 0 0 0 0"
    ascent="1000"
    descent="-303"
    alphabetic="0" />
<glyph unicode=" " horiz-adv-x="260" />
<glyph unicode="!" horiz-adv-x="240" d="M88 202L78 697H163L153 202H88ZM70 0V116H170V0H70Z" />
<glyph unicode="&quot;" horiz-adv-x="338" d="M51 414V697H123V414H51ZM214 414V697H286V414H214Z" />
<glyph unicode="#" horiz-adv-x="699" d="M128 0L173 209H53V270H186L221 439H94V503H234L277 697H345L302 500H458L500 697H568L525 500H646V439H512L475 270H605V209H463L418 0H351L396 209H239L196 0H128ZM254 270H410L444 439H288L254 270Z" />
<glyph unicode="$" horiz-adv-x="560" d="M253 -112V0H313V-112H253ZM253 697V808H313V697H253ZM292 -11Q187 -11 120 44T38 190L124 211Q135 141 181 105T295 68Q334 68 365 83T414 125T432 188Q432 225 412 249T357 291T274 327Q216 349 173 375T105 437T81
527Q81 580 107 621T180 685T289 709Q355 709 406 679T488 590L418 547Q395 588 362 609T286 631Q252 631 226 618T184 582T169 529Q169 497 187 475T239 435T321 400Q382 377 426 350T494 286T519 193Q519 134 490 88T410 16T292 -11Z" />
<glyph unicode="%" horiz-adv-x="747" d="M116 0L565 697H627L178 0H116ZM543 -8Q500 -8 466 12T410 69T389 153Q389 200 409 236T464 292T542 313Q585 313 620 292T675 234T696 153Q696 109 676 73T621 14T543 -8ZM543 50Q570 50 591 63T625 100T638 153Q638
183 625 206T591 242T542 255Q516 255 495 242T460 207T447 153Q447 122 460 99T496 63T543 50ZM206 385Q163 385 128 405T72 462T51 544Q51 592 72 628T127 684T204 705Q247 705 282 684T337 626T358 544Q358 501 338 465T283 407T206 385ZM206 443Q232 443 253
456T286 493T299 544Q299 575 286 598T252 634T204 647Q178 647 157 635T122 599T109 544Q109 514 122 491T157 456T206 443Z" />
<glyph unicode="&amp;" horiz-adv-x="686" d="M276 -10Q212 -10 162 10T84 69T55 163Q55 208 73 242T122 303T188 351T261 393Q303 416 338 439T394 491T415 556Q415 588 394 612T325 637Q280 637 251 611T222 541Q222 515 233 491T260 445T293 403L226 368Q207
392 187 418T154 475T141 543Q141 592 165 628T232 684T324 704Q404 704 449 664T494 557Q494 501 465 461T392 390T300 332Q260 309 224 286T165 235T142 167Q142 119 178 91T276 63Q386 63 455 141T549 360L624 349Q606 231 558 151T438 31T276 -10ZM576 -34L265
330L332 371L636 19L576 -34Z" />
<glyph unicode="&apos;" horiz-adv-x="174" d="M51 414V697H123V414H51Z" />
<glyph unicode="(" horiz-adv-x="222" d="M143 -204Q114 -163 92 -109T55 6T33 128T25 245Q25 327 38 409T78 566T144 697H221Q177 636 149 560T107 404T93 246Q93 190 101 129T125 8T166 -107T221 -204H143Z" />
<glyph unicode=")" horiz-adv-x="222" d="M79 -204H1Q33 -162 56 -108T96 7T121 129T129 246Q129 323 116 403T74 560T1 697H78Q118 640 144 566T183 410T197 245Q197 190 190 129T167 7T130 -108T79 -204Z" />
<glyph unicode="*" horiz-adv-x="398" d="M126 395L86 426L173 530L41 564L57 614L183 562L173 697H225L216 562L342 614L357 564L226 530L313 426L272 395L199 511L126 395Z" />
<glyph unicode="+" horiz-adv-x="560" d="M246 9V214H41V281H246V486H314V281H519V214H314V9H246Z" />
<glyph unicode="," horiz-adv-x="240" d="M24 -154L117 147H211L81 -154H24Z" />
<glyph unicode="-" horiz-adv-x="327" d="M40 272V335H288V272H40Z" />
<glyph unicode="." horiz-adv-x="240" d="M70 0V116H170V0H70Z" />
<glyph unicode="/" horiz-adv-x="418" d="M-42 -211L315 697H381L23 -211H-42Z" />
<glyph unicode="0" horiz-adv-x="560" d="M282 -8Q224 -8 184 13T117 72T78 155T59 252T53 351Q53 398 58 448T76 544T115 626T181 684T279 706Q335 706 374 686T440 630T480 549T501 452T507 350Q507 298 501 247T481 150T441 69T376 13T282 -8ZM282 74Q334 74
364 110T408 208T421 347Q421 428 408 490T363 589T279 625Q237 625 210 603T168 543T147 454T140 348Q140 294 146 245T168 157T211 97T282 74Z" />
<glyph unicode="1" horiz-adv-x="560" d="M291 0V562L317 518H109V586H230Q260 586 275 599T291 644V697H376V0H291Z" />
<glyph unicode="2" horiz-adv-x="560" d="M48 0V70Q83 98 129 132T223 206T311 291T377 386T402 489Q402 548 369 585T272 622Q225 622 194 601T147 542T130 456L47 462Q47 511 62 554T106 631T177 684T275 704Q338 704 385 678T458 604T485 492Q485 436 465 384T408
285T324 196T224 117T116 49L138 79H513V0H48Z" />
<glyph unicode="3" horiz-adv-x="560" d="M275 -8Q200 -8 144 19T57 96T26 212L110 217Q110 151 156 113T278 74Q328 74 364 90T419 136T439 206Q439 243 423 267T380 306T315 327T236 333V400Q267 400 296 405T349 424T386 459T400 514Q400 547 384 572T340 610T274
624Q212 624 177 590T141 503L58 508Q58 566 86 610T163 680T277 705Q338 705 384 682T458 617T485 522Q485 492 476 469T451 427T413 397T367 376Q397 369 425 356T475 322T510 272T523 205Q523 142 492 94T405 19T275 -8Z" />
<glyph unicode="4" horiz-adv-x="560" d="M348 0V166H16V233L355 697H433V245H545V166H433V0H348ZM87 215L80 245H348V602L358 595L87 215Z" />
<glyph unicode="5" horiz-adv-x="560" d="M278 -8Q217 -8 166 18T81 90T36 195L119 210Q126 172 146 141T200 91T277 73Q327 73 362 96T415 158T434 239Q434 281 417 315T366 370T283 391Q239 391 203 371T141 313L58 336L123 697H491V618H154L199 654L150 384L126
389Q165 435 208 453T295 471Q362 471 413 440T494 355T523 239Q523 189 505 145T454 66T376 12T278 -8Z" />
<glyph unicode="6" horiz-adv-x="560" d="M361 697L183 412L173 425Q196 440 221 448T271 456Q336 456 388 425T471 342T502 226Q502 159 469 106T382 23T260 -8Q194 -8 139 22T50 106T17 225Q17 259 27 291T55 352L264 697H361ZM260 381Q218 381 183 361T126
306T104 226Q104 182 125 147T181 92T260 72Q303 72 338 92T395 147T416 227Q416 271 395 306T339 361T260 381Z" />
<glyph unicode="7" horiz-adv-x="560" d="M104 0L444 648L467 618H28V697H528V632L198 0H104Z" />
<glyph unicode="8" horiz-adv-x="560" d="M280 -8Q218 -8 163 15T73 85T38 201Q38 263 69 310T159 379Q121 398 98 434T75 520Q75 579 105 620T182 683T281 705Q337 705 383 682T457 617T485 517Q485 468 463 433T401 379Q459 357 490 310T522 201Q522 132 488
86T398 16T280 -8ZM280 72Q323 72 358 87T415 133T437 209Q437 251 417 281T362 328T280 345Q234 345 199 329T143 282T122 209Q122 164 144 134T202 88T280 72ZM282 403Q334 403 367 433T401 511Q401 562 369 593T281 625Q248 625 221 612T177 575T160 515Q160
464 194 434T282 403Z" />
<glyph unicode="9" horiz-adv-x="560" d="M178 0L356 285L366 272Q344 257 319 249T268 241Q203 241 151 272T68 355T37 471Q37 538 70 591T158 674T279 705Q346 705 401 675T489 592T522 472Q522 438 512 406T484 345L275 0H178ZM279 316Q322 316 357 336T413
391T435 471Q435 516 414 550T358 605T279 625Q236 625 201 605T144 550T123 470Q123 426 144 391T200 336T279 316Z" />
<glyph unicode=":" horiz-adv-x="240" d="M70 354V471H170V354H70ZM70 0V116H170V0H70Z" />
<glyph unicode=";" horiz-adv-x="240" d="M8 -154L102 130H196L66 -154H8ZM86 354V471H186V354H86Z" />
<glyph unicode="&lt;" horiz-adv-x="560" d="M521 7L24 210V283L521 487V415L72 234V260L521 78V7Z" />
<glyph unicode="=" horiz-adv-x="560" d="M82 317V384H479V317H82ZM82 110V177H479V110H82Z" />
<glyph unicode="&gt;" horiz-adv-x="560" d="M39 7V78L488 260V234L39 415V487L536 283V210L39 7Z" />
<glyph unicode="?" horiz-adv-x="516" d="M218 200V257Q218 297 230 323T262 369T304 403T346 435T378 472T391 525Q391 578 356 606T257 634Q191 634 155 600T118 503H43Q44 568 71 613T147 681T258 705Q317 705 364 686T438 626T465 524Q465 481 453 452T420
403T378 368T336 338T304 303T291 251V200H218ZM206 0V116H306V0H206Z" />
<glyph unicode="@" horiz-adv-x="874" d="M438 -107Q360 -107 292 -79T172 -1T91 118T61 266Q61 348 89 417T169 538T289 618T438 647Q519 647 587 619T707 540T786 421T814 274Q814 214 799 169T753 99T671 73Q635 73 609 86T569 122T555 170V201L572 176Q551
121 507 96T414 70Q363 70 322 94T257 162T233 264Q233 323 257 367T322 435T414 460Q463 460 500 436T557 365L548 372L557 452H622V205Q622 170 635 154T678 138Q717 138 734 173T752 273Q752 341 729 397T663 496T564 561T438 584Q372 584 315 561T215 495T148
394T124 266Q124 199 148 143T216 44T316 -21T438 -45Q524 -45 603 2L632 -53Q590 -80 540 -93T438 -107ZM430 137Q464 137 489 153T530 197T545 264Q545 303 530 332T490 377T430 393Q397 393 371 377T329 331T314 264Q314 227 329 198T370 153T430 137Z" />
<glyph unicode="A" horiz-adv-x="637" d="M17 0L283 697H353L619 0H523L319 571L114 0H17ZM165 164L192 243H444L473 164H165Z" />
<glyph unicode="B" horiz-adv-x="601" d="M79 0V697H302Q401 697 457 651T514 523Q514 471 491 432T426 373Q487 356 518 311T550 197Q550 103 492 52T326 0H79ZM167 81H320Q463 81 463 201Q463 258 431 289T339 321H167V81ZM167 400H316Q366 400 396 429T427
510Q427 560 394 588T302 616H167V400Z" />
<glyph unicode="C" horiz-adv-x="704" d="M372 -12Q276 -12 204 33T91 159T50 349Q50 457 90 538T203 664T372 709Q477 709 554 657T665 513L583 482Q557 550 503 587T372 625Q301 625 248 591T167 496T138 349Q138 264 166 202T248 106T372 72Q449 72 503 110T583
215L665 185Q631 94 554 41T372 -12Z" />
<glyph unicode="D" horiz-adv-x="682" d="M79 0V697H272Q443 697 537 605T631 343Q631 177 538 89T271 0H79ZM167 81H263Q352 81 414 107T509 192T542 346Q542 441 510 500T417 588T271 616H167V81Z" />
<glyph unicode="E" horiz-adv-x="585" d="M79 0V697H538V618H167V395H504V316H167V79H538V0H79Z" />
<glyph unicode="F" horiz-adv-x="565" d="M79 0V697H536V618H167V395H487V316H167V0H79Z" />
<glyph unicode="G" horiz-adv-x="731" d="M367 -12Q273 -12 202 33T90 159T50 349Q50 457 90 538T203 664T372 709Q477 709 554 657T665 513L583 482Q557 550 503 587T372 625Q301 625 248 591T167 496T138 349Q138 264 166 202T248 106T372 72Q408 72 446 82T516
117T567 185T587 296V347L607 287H411V366H665V0H587L575 136L590 125Q572 77 538 47T460 3T367 -12Z" />
<glyph unicode="H" horiz-adv-x="678" d="M79 0V697H167V398H511V697H599V0H511V316H167V0H79Z" />
<glyph unicode="I" horiz-adv-x="246" d="M79 0V697H167V0H79Z" />
<glyph unicode="J" horiz-adv-x="552" d="M256 -12Q159 -12 97 47T28 209L115 218Q120 142 157 106T256 70Q327 70 359 117T392 252V618H116V697H480V247Q480 166 454 108T377 19T256 -12Z" />
<glyph unicode="K" horiz-adv-x="634" d="M148 222V334L495 697H613L148 222ZM79 0V697H167V0H79ZM512 0L275 375L341 436L615 0H512Z" />
<glyph unicode="L" horiz-adv-x="495" d="M79 0V697H167V79H479V0H79Z" />
<glyph unicode="M" horiz-adv-x="839" d="M79 0V697H209L428 146H412L631 697H760V0H672V595L679 594L463 59H377L160 594L167 595V0H79Z" />
<glyph unicode="N" horiz-adv-x="676" d="M79 0V697H172L529 114H509V697H597V0H502L147 584H167V0H79Z" />
<glyph unicode="O" horiz-adv-x="748" d="M372 -12Q276 -12 204 33T91 159T50 348Q50 457 90 538T203 664T372 709Q470 709 543 664T656 538T697 348Q697 240 656 159T542 33T372 -12ZM372 72Q445 72 497 106T579 202T608 348Q608 433 579 495T498 591T372 625Q301
625 248 592T167 496T138 348Q138 263 166 201T248 106T372 72Z" />
<glyph unicode="P" horiz-adv-x="554" d="M79 0V697H287Q400 697 459 647T519 500Q519 403 459 352T287 300H166V0H79ZM166 378H278Q350 378 390 407T431 499Q431 560 392 589T278 618H166V378Z" />
<glyph unicode="Q" horiz-adv-x="774" d="M372 -12Q276 -12 204 33T91 159T50 348Q50 457 90 538T203 664T372 709Q470 709 543 664T656 538T697 348Q697 240 656 159T542 33T372 -12ZM670 -46L399 218L451 273L723 6L670 -46ZM372 72Q445 72 497 106T579 202T608
348Q608 433 579 495T498 591T372 625Q301 625 248 592T167 496T138 348Q138 263 166 201T248 106T372 72Z" />
<glyph unicode="R" horiz-adv-x="598" d="M79 0V697H287Q367 697 418 674T494 606T519 501Q519 414 469 364T324 304Q309 303 288 303T247 303H167V0H79ZM469 0L288 314L378 325L570 0H469ZM167 381H278Q324 381 358 393T411 431T431 500Q431 544 412 569T358
606T278 618H167V381Z" />
<glyph unicode="S" horiz-adv-x="564" d="M292 -11Q187 -11 120 44T38 190L124 211Q135 141 181 105T295 68Q334 68 365 83T414 125T432 188Q432 225 412 249T357 291T274 327Q216 349 173 375T105 437T81 527Q81 580 107 621T180 685T289 709Q355 709 406 679T488
590L418 547Q395 588 362 609T286 631Q252 631 226 618T184 582T169 529Q169 497 187 475T239 435T321 400Q382 377 426 350T494 286T519 193Q519 134 490 88T410 16T292 -11Z" />
<glyph unicode="T" horiz-adv-x="587" d="M249 0V618H15V697H571V618H338V0H249Z" />
<glyph unicode="U" horiz-adv-x="656" d="M327 -12Q203 -12 138 55T72 252V697H160V262Q160 199 176 156T230 91T327 69Q387 69 424 91T479 157T496 263V697H583V257Q583 125 518 57T327 -12Z" />
<glyph unicode="V" horiz-adv-x="656" d="M295 0L17 697H114L342 107H317L542 697H639L363 0H295Z" />
<glyph unicode="W" horiz-adv-x="957" d="M227 0L23 697H115L276 133L435 659H523L682 133L842 697H934L730 0H643L472 554H486L315 0H227Z" />
<glyph unicode="X" horiz-adv-x="641" d="M21 0L260 350L24 697H129L321 412L512 697H617L381 350L621 0H516L320 286L125 0H21Z" />
<glyph unicode="Y" horiz-adv-x="602" d="M258 0V269L12 697H112L299 357L490 697H590L346 269V0H258Z" />
<glyph unicode="Z" horiz-adv-x="582" d="M32 0V75L449 645L461 618H56V697H537V623L127 63L116 79H549V0H32Z" />
<glyph unicode="[" horiz-adv-x="258" d="M58 -247V740H253V683H128V-190H253V-247H58Z" />
<glyph unicode="\" horiz-adv-x="448" d="M490 -211H425L67 697H133L490 -211Z" />
<glyph unicode="]" horiz-adv-x="258" d="M200 -247H5V-190H130V683H5V740H200V-247Z" />
<glyph unicode="^" horiz-adv-x="552" d="M30 219L223 697H329L522 219H432L263 656H288L120 219H30Z" />
<glyph unicode="_" horiz-adv-x="405" d="M0 -65V0H405V-65H0Z" />
<glyph unicode="`" horiz-adv-x="292" d="M179 556L49 697H139L243 556H179Z" />
<glyph unicode="a" horiz-adv-x="540" d="M396 0L390 99V309Q390 366 359 397T265 428Q225 428 190 412T122 356L61 408Q102 456 155 478T271 501Q368 501 421 451T474 309V0H396ZM233 -8Q177 -8 136 11T72 66T49 147Q49 188 65 216T108 261Q134 278 167 284T238
291H398V227H250Q228 227 204 223T162 206Q149 196 142 181T134 146Q134 107 163 84T241 61Q282 61 315 80T369 132T390 208L425 172Q419 119 393 78T327 15T233 -8Z" />
<glyph unicode="b" horiz-adv-x="587" d="M314 -8Q267 -8 230 10T167 62T128 138L156 147V0H72V697H156V346L132 360Q143 399 168 431T230 482T314 501Q376 501 427 470T508 382T538 247Q538 175 510 117T432 26T314 -8ZM300 70Q345 70 379 92T433 155T453 247Q453
299 434 339T380 401T300 424Q255 424 221 402T168 339T149 247Q149 195 168 155T221 93T300 70Z" />
<glyph unicode="c" horiz-adv-x="518" d="M277 -8Q222 -8 180 12T108 67T64 149T49 247Q49 298 64 344T108 425T179 481T277 501Q347 501 399 467T477 363L402 334Q388 376 357 402T277 428Q228 428 196 402T149 335T133 247Q133 200 148 159T196 92T277 66Q326
66 357 91T402 160L477 131Q452 61 400 27T277 -8Z" />
<glyph unicode="d" horiz-adv-x="587" d="M273 -8Q206 -8 156 25T77 117T49 247Q49 325 79 382T160 470T273 501Q320 501 357 483T419 433T455 362L431 346V697H515V0H431V147L459 138Q446 95 420 62T357 11T273 -8ZM287 70Q332 70 366 92T419 155T438 247Q438
299 419 339T366 401T287 424Q242 424 208 402T154 339T134 247Q134 195 153 155T207 93T287 70Z" />
<glyph unicode="e" horiz-adv-x="540" d="M280 -8Q222 -8 179 11T107 66T64 146T49 243Q49 294 63 340T104 423T174 480T272 501Q329 501 370 482T438 428T478 352T491 265Q491 261 491 247T488 221H133Q136 149 175 109T281 69Q324 69 356 83T416 128L475 76Q448
47 418 29T355 1T280 -8ZM407 264Q409 272 409 280T410 296Q410 320 402 344T377 387T335 418T274 430Q231 430 200 410T152 357T132 284H435L407 264Z" />
<glyph unicode="f" horiz-adv-x="335" d="M112 0V427H10V493H113V557Q113 613 131 645T180 691T251 705Q278 705 299 700T339 685L311 621Q300 627 287 630T260 634Q228 634 213 614T197 557V493H312V427H197V0H112Z" />
<glyph unicode="g" horiz-adv-x="514" d="M271 -213Q165 -213 103 -174T41 -66Q41 -61 41 -53T44 -38L167 51L196 31L126 -56Q125 -60 125 -63T125 -69Q125 -109 167 -128T271 -148Q326 -148 362 -133T398 -82Q398 -62 387 -50T354 -30T303 -18T238 -8Q193 -1
151 12T81 50T53 116Q53 151 77 180T142 228L196 193Q162 185 148 169T134 129Q134 110 147 98T186 80T248 68Q296 61 338 53T412 31T463 -8T481 -72Q481 -140 425 -176T271 -213ZM259 154Q202 154 158 176T90 237T65 326Q65 378 90 417T159 479T256 501Q308 501
351 479T420 417T446 323Q446 272 422 234T356 175T259 154ZM257 223Q307 223 334 253T362 328Q362 375 333 404T257 433Q209 433 179 404T149 329Q149 284 178 254T257 223ZM414 401L353 442L457 528L500 475L414 401Z" />
<glyph unicode="h" horiz-adv-x="547" d="M72 0V697H157V388L136 380Q150 418 175 445T234 486T308 501Q389 501 435 454T481 313V0H396V282Q396 357 369 392T285 428Q224 428 191 385T157 246V0H72Z" />
<glyph unicode="i" horiz-adv-x="226" d="M71 0V493H155V0H71ZM63 582V697H163V582H63Z" />
<glyph unicode="j" horiz-adv-x="226" d="M52 -212Q35 -212 15 -209T-25 -199V-125Q-9 -130 3 -132T22 -134Q46 -134 58 -121T71 -73V493H155V-95Q155 -156 127 -184T52 -212ZM64 582V697H164V582H64Z" />
<glyph unicode="k" horiz-adv-x="532" d="M408 0L244 254L147 150V259L374 493H483L306 311L509 0H408ZM72 0V697H157V0H72Z" />
<glyph unicode="l" horiz-adv-x="265" d="M171 -8Q126 -8 98 20T70 109V697H154V125Q154 96 166 83T198 70Q207 70 218 72T241 78V6Q224 -1 205 -4T171 -8Z" />
<glyph unicode="m" horiz-adv-x="828" d="M72 0V493H157V366H140Q149 401 164 426T201 468T246 493T298 501Q343 501 377 484T433 433T463 345L415 342Q430 393 453 428T510 482T593 501Q654 501 691 474T745 401T762 300V0H678V280Q678 326 668 359T635 410T574
428Q538 428 513 410T474 356T460 265V0H375V287Q375 358 349 393T273 428Q237 428 211 410T171 355T157 265V0H72Z" />
<glyph unicode="n" horiz-adv-x="547" d="M72 0V493H157V388L137 381Q151 419 175 445T233 486T308 501Q389 501 435 454T481 313V0H396V282Q396 357 369 392T285 428Q244 428 216 409T172 350T157 246V0H72Z" />
<glyph unicode="o" horiz-adv-x="577" d="M289 -8Q220 -8 166 24T80 115T49 247Q49 321 79 378T164 468T289 501Q359 501 412 469T497 379T528 247Q528 173 497 116T412 25T289 -8ZM289 67Q336 67 370 89T424 152T443 247Q443 302 424 342T371 405T289 427Q241
427 206 405T152 342T133 247Q133 193 152 153T206 90T289 67Z" />
<glyph unicode="p" horiz-adv-x="587" d="M72 -204V493H156V346L129 365Q142 408 167 438T230 485T314 501Q381 501 431 468T510 377T538 246Q538 169 508 112T427 23T314 -8Q267 -8 230 9T168 56T132 124L156 147V-204H72ZM300 69Q345 69 379 91T433 154T453
246Q453 298 434 338T380 400T300 423Q255 423 221 401T168 338T149 246Q149 194 168 154T221 92T300 69Z" />
<glyph unicode="q" horiz-adv-x="587" d="M431 -204V147L455 124Q445 86 420 56T357 9T273 -8Q211 -8 160 23T79 111T49 246Q49 319 77 376T155 467T273 501Q320 501 357 485T419 439T458 365L431 346V493H515V-204H431ZM287 69Q332 69 366 91T419 154T438 246Q438
298 419 338T366 400T287 423Q242 423 208 401T154 338T134 246Q134 194 153 154T207 92T287 69Z" />
<glyph unicode="r" horiz-adv-x="407" d="M72 0V493H157V361L135 356Q142 400 168 432T230 483T300 501Q323 501 344 496T387 479L345 403Q333 409 317 413T285 417Q261 417 238 408T195 380T166 329Q162 315 160 293T157 231V0H72Z" />
<glyph unicode="s" horiz-adv-x="470" d="M235 -8Q185 -8 145 7T77 47T31 100L90 150Q109 112 146 88T236 63Q283 63 311 83T339 137Q339 165 322 181T277 207T216 225Q188 232 160 242T108 267T71 306T57 365Q57 426 104 463T229 501Q285 501 331 478T404 407L350
367Q330 402 298 417T226 433Q187 433 161 417T135 373Q135 352 147 339T182 317T240 300Q271 293 303 283T362 257T405 215T422 146Q422 100 399 65T334 11T235 -8Z" />
<glyph unicode="t" horiz-adv-x="346" d="M236 -8Q201 -8 173 5T128 49T112 126V625L198 673V148Q198 107 211 85T258 62Q268 62 282 64T312 71V5Q293 -2 274 -5T236 -8ZM10 427V493H312V427H10Z" />
<glyph unicode="u" horiz-adv-x="547" d="M238 -8Q185 -8 146 13T87 77T66 181V493H150V211Q150 162 162 130T200 82T262 66Q303 66 331 85T375 145T390 248V493H474V0H390V105H411Q390 50 344 21T238 -8Z" />
<glyph unicode="v" horiz-adv-x="521" d="M225 0L23 493H116L260 109L405 493H497L296 0H225Z" />
<glyph unicode="w" horiz-adv-x="748" d="M174 0L28 493H118L218 128L336 493H411L529 130L630 493H720L573 0H495L374 375L253 0H174Z" />
<glyph unicode="x" horiz-adv-x="520" d="M27 0L204 248L27 493H131L260 306L391 493H493L315 248L493 0H389L260 189L129 0H27Z" />
<glyph unicode="y" horiz-adv-x="521" d="M121 -203L215 24L23 493H116L260 109L405 493H497L213 -203H121Z" />
<glyph unicode="z" horiz-adv-x="472" d="M37 0V60L349 444L353 425H51V493H431V429L121 43L118 69H429V0H37Z" />
<glyph unicode="{" horiz-adv-x="239" d="M174 -247Q121 -247 93 -214T65 -119V136Q65 162 58 178T37 204T4 216V278Q23 281 36 290T57 315T65 357V612Q65 674 93 707T174 740H235V685H201Q166 685 152 665T138 611V356Q138 311 121 287T73 250V243Q104 231 121
207T138 138V-118Q138 -151 152 -171T201 -192H235V-247H174Z" />
<glyph unicode="|" horiz-adv-x="258" d="M97 -254V746H161V-254H97Z" />
<glyph unicode="}" horiz-adv-x="239" d="M65 -247H4V-192H38Q73 -192 87 -172T101 -118V138Q101 182 118 206T166 243V250Q135 263 118 287T101 356V611Q101 644 87 664T38 685H4V740H65Q118 740 146 707T174 612V357Q174 332 181 316T203 290T235 278V216Q217
214 203 205T182 179T174 136V-119Q174 -180 146 -213T65 -247Z" />
<glyph unicode="~" horiz-adv-x="560" d="M367 157Q334 157 313 169T278 198T253 233T227 263T191 275Q165 275 151 250T136 183H68Q68 251 101 294T191 337Q225 337 247 325T283 295T309 259T334 229T367 217Q393 217 409 247T426 322H493Q493 249 459 203T367 157Z" />
<glyph unicode="&#xa0;" horiz-adv-x="260" />
<glyph unicode="&#xa1;" horiz-adv-x="240" d="M152 291L162 -204H77L87 291H152ZM170 493V377H70V493H170Z" />
<glyph unicode="&#xa2;" horiz-adv-x="560" d="M265 -113V0H325V-113H265ZM265 493V601H325V493H265ZM298 -8Q243 -8 201 12T129 67T85 149T70 247Q70 298 85 344T129 425T200 481T298 501Q368 501 420 467T498 363L423 334Q409 376 378 402T298 428Q249 428 217
402T170 335T154 247Q154 200 169 159T217 92T298 66Q347 66 378 91T423 160L498 131Q473 61 421 27T298 -8Z" />
<glyph unicode="&#xa3;" horiz-adv-x="560" d="M50 0V78Q87 90 116 112T163 163T180 221Q180 245 171 271T153 321H53V393H138Q131 416 125 445T118 504Q118 561 142 607T212 681T320 708Q394 708 447 668T519 559L453 534Q440 584 404 610T322 636Q283 636 253
619T206 572T189 502Q189 474 195 445T211 393H417V321H224Q232 299 241 274T251 220Q251 182 238 154T204 106T157 77T107 63L123 72H516V0H50Z" />
<glyph unicode="&#xa4;" horiz-adv-x="613" d="M110 68L65 116L126 176Q102 207 91 242T80 312Q80 350 92 385T126 449L65 508L112 556L172 494Q232 542 310 542Q345 542 380 531T445 495L505 556L552 509L491 449Q515 420 526 384T538 312Q538 278 527 242T491
175L552 116L506 68L445 130Q415 106 380 95T309 83Q271 83 236 95T171 130L110 68ZM308 148Q354 148 391 170T450 231T473 313Q473 358 451 395T391 454T308 477Q263 477 226 455T167 395T144 311Q144 265 166 228T226 170T308 148Z" />
<glyph unicode="&#xa5;" horiz-adv-x="560" d="M238 0V109H65V177H238V264H65V333H201L3 697H98L280 351L464 697H559L363 333H496V264H326V177H496V109H326V0H238Z" />
<glyph unicode="&#xa6;" horiz-adv-x="258" d="M97 330V746H161V330H97ZM97 -254V155H161V-254H97Z" />
<glyph unicode="&#xa7;" horiz-adv-x="577" d="M284 -200Q221 -200 169 -173T82 -84L155 -39Q178 -81 212 -101T287 -121Q320 -121 345 -108T386 -73T401 -21Q401 15 379 38T321 77T249 107Q215 120 180 136T116 174T68 230T50 311Q50 352 65 387T105 448Q98 462
93 481T88 522Q88 580 116 620T190 683T292 705Q358 705 410 677T495 590L422 545Q401 584 368 605T290 627Q258 627 232 614T192 579T177 526Q177 491 199 468T256 430T328 400Q363 387 398 371T462 332T509 276T527 196Q527 156 513 121T472 58Q480 42 484 24T489
-17Q489 -73 461 -114T387 -178T284 -200ZM413 117Q439 146 439 188Q439 227 419 251T363 294T281 329Q263 337 243 345T202 363T164 389Q151 375 145 356T138 319Q138 289 151 268T186 230T237 202T296 177Q324 166 356 153T413 117Z" />
<glyph unicode="&#xa8;" horiz-adv-x="383" d="M234 582V697H334V582H234ZM49 582V697H149V582H49Z" />
<glyph unicode="&#xa9;" horiz-adv-x="827" d="M414 -5Q341 -5 277 22T164 98T88 211T60 349Q60 422 87 486T163 598T276 674T414 702Q487 702 551 675T663 599T739 486T767 349Q767 276 740 212T664 99T551 23T414 -5ZM415 124Q351 124 307 155T240 236T217 347Q217
405 239 456T304 540T414 573Q476 573 522 542T593 451L527 425Q513 462 484 485T414 509Q371 509 343 486T301 425T287 347Q287 306 300 270T342 212T414 189Q455 189 484 211T524 271L588 247Q568 189 523 157T415 124ZM414 37Q479 37 535 61T634 128T701 228T726
349Q726 414 702 470T635 569T536 636T414 661Q350 661 293 637T194 570T127 471T102 349Q102 285 126 228T193 129T293 62T414 37Z" />
<glyph unicode="&#xaa;" horiz-adv-x="499" d="M214 348Q161 348 127 377T92 455Q92 508 130 533T226 558H335Q335 561 335 568T334 581Q330 619 308 639T245 659Q208 659 184 644T143 603L104 630Q133 671 166 688T243 705Q310 705 347 668T384 566V355H339L338
415Q290 348 214 348ZM225 395Q258 395 284 411T327 458Q330 472 332 485T335 512H229Q189 512 168 497T146 453Q146 427 167 411T225 395Z" />
<glyph unicode="&#xab;" horiz-adv-x="469" d="M454 60L226 253L454 445V354L327 253L454 151V60ZM231 60L3 253L231 445V354L103 253L231 151V60Z" />
<glyph unicode="&#xac;" horiz-adv-x="560" d="M408 15V214H29V281H475V15H408Z" />
<glyph unicode="&#xad;" horiz-adv-x="327" d="M40 272V335H288V272H40Z" />
<glyph unicode="&#xae;" horiz-adv-x="626" d="M313 191Q242 191 184 224T91 315T56 448Q56 523 90 581T183 672T313 705Q384 705 442 672T534 581T569 448Q569 373 535 315T442 224T313 191ZM313 231Q373 231 422 259T500 336T529 448Q529 512 500 561T422 638T313
666Q253 666 204 638T125 561T96 448Q96 385 125 336T203 259T313 231ZM235 304V593H322Q372 593 395 571T419 511Q419 479 402 460T354 434L430 304H387L316 429H274V304H235ZM275 464H318Q345 464 362 474T380 511Q380 537 363 547T318 558H275V464Z" />
<glyph unicode="&#xaf;" horiz-adv-x="369" d="M49 589V640H320V589H49Z" />
<glyph unicode="&#xb0;" horiz-adv-x="418" d="M209 420Q170 420 138 439T86 491T66 563Q66 602 85 634T137 686T209 705Q248 705 280 686T332 635T352 563Q352 524 333 492T281 440T209 420ZM209 478Q233 478 252 489T282 520T294 563Q294 587 283 606T252 636T209
647Q186 647 167 636T136 606T124 563Q124 540 135 521T166 490T209 478Z" />
<glyph unicode="&#xb1;" horiz-adv-x="560" d="M246 120V288H32V356H246V522H314V356H528V288H314V120H246ZM32 -30V38H528V-30H32Z" />
<glyph unicode="&#xb2;" horiz-adv-x="418" d="M58 488V529Q93 551 133 578T209 637T268 706T291 784Q291 819 271 841T211 864Q183 864 164 851T134 814T123 760L77 764Q77 803 92 835T138 887T211 907Q267 907 302 875T338 783Q338 743 319 706T269 637T201
578T128 530L117 531H360V488H58Z" />
<glyph unicode="&#xb3;" horiz-adv-x="413" d="M204 482Q163 482 130 497T77 541T57 611L102 615Q102 572 131 549T205 525Q246 525 276 546T306 609Q306 643 286 660T238 682T184 688V721Q214 721 236 728T271 749T283 788Q283 823 260 842T205 861Q169 861 146
841T121 786L76 789Q76 843 113 874T203 905Q237 905 265 892T311 855T329 797Q329 774 320 757T294 728T259 709Q285 704 305 690T338 655T351 605Q351 566 331 539T278 497T204 482Z" />
<glyph unicode="&#xb4;" horiz-adv-x="298" d="M49 556L158 697H249L112 556H49Z" />
<glyph unicode="&#xb5;" horiz-adv-x="547" d="M66 -169V493H150V201Q150 162 161 132T197 84T265 66Q312 66 339 91T378 160T390 259V493H474V0H390V77Q368 36 329 14T240 -8Q208 -8 185 4T150 42V-169H66Z" />
<glyph unicode="&#xb6;" horiz-adv-x="573" d="M268 -121V307Q211 307 160 330T77 397T45 502Q45 564 77 607T160 674T268 697H318V-121H268ZM427 -121V697H476V-121H427Z" />
<glyph unicode="&#xb7;" horiz-adv-x="334" d="M109 291V407H209V291H109Z" />
<glyph unicode="&#xb8;" horiz-adv-x="299" d="M144 -257Q114 -257 87 -239T49 -193L97 -172Q102 -187 116 -197T147 -207Q171 -207 185 -193T199 -157Q199 -129 175 -113T112 -96Q106 -95 94 -95T73 -95L129 0H181L141 -60Q143 -61 153 -62T173 -65Q211 -75 230
-97T250 -153Q250 -183 237 -206T200 -243T144 -257Z" />
<glyph unicode="&#xb9;" horiz-adv-x="271" d="M144 488V823L159 799H42V836H109Q146 836 146 869V902H190V488H144Z" />
<glyph unicode="&#xba;" horiz-adv-x="526" d="M263 353Q213 353 175 377T114 441T92 529Q92 578 114 617T175 681T263 705Q312 705 350 682T411 618T433 529Q433 480 411 440T351 377T263 353ZM263 401Q300 401 325 418T364 464T378 529Q378 565 365 594T326
641T263 658Q226 658 201 641T162 595T148 529Q148 494 161 465T200 418T263 401Z" />
<glyph unicode="&#xbb;" horiz-adv-x="467" d="M12 60V151L139 253L12 354V445L240 253L12 60ZM235 60V151L363 253L235 354V445L463 253L235 60Z" />
<glyph unicode="&#xbc;" horiz-adv-x="714" d="M130 279V614L148 584H22V631H91Q110 631 120 639T130 668V697H189V279H130ZM114 0L516 697H577L175 0H114ZM561 0V100H367V145L567 418H620V154H687V100H620V0H561ZM417 133L411 154H561V352L568 347L417 133Z" />
<glyph unicode="&#xbd;" horiz-adv-x="751" d="M130 279V614L148 584H22V631H91Q110 631 120 639T130 668V697H189V279H130ZM114 0L516 697H577L175 0H114ZM436 0V47Q462 67 497 93T565 150T621 217T643 291Q643 324 625 344T572 365Q545 365 528 353T502 319T492
271L435 275Q435 314 451 347T498 401T574 422Q630 422 666 387T702 293Q702 252 684 215T635 144T565 83T483 32L498 54H718V0H436Z" />
<glyph unicode="&#xbe;" horiz-adv-x="795" d="M184 274Q116 274 74 311T32 408L91 411Q91 374 117 352T185 330Q228 330 252 350T276 404Q276 445 244 460T161 475V522Q185 522 206 527T240 547T253 585Q253 613 234 629T183 646Q148 646 129 627T109 579L51
582Q51 635 89 668T185 702Q240 702 276 671T312 591Q312 557 293 536T247 505Q271 499 290 486T322 453T334 404Q334 346 293 310T184 274ZM195 0L597 697H658L256 0H195ZM642 0V100H448V145L648 418H701V154H768V100H701V0H642ZM498 133L492 154H642V352L649
347L498 133Z" />
<glyph unicode="&#xbf;" horiz-adv-x="340" d="M277 293V236Q277 196 265 170T233 124T191 90T149 58T117 21T104 -32Q104 -85 139 -113T238 -141Q304 -141 340 -107T377 -10H452Q452 -75 424 -120T348 -188T237 -212Q178 -212 131 -193T57 -133T30 -31Q30 13
42 41T75 90T117 125T159 155T191 190T204 242V293H277ZM289 493V377H189V493H289Z" />
<glyph unicode="&#xc0;" horiz-adv-x="637" d="M17 0L283 697H353L619 0H523L319 571L114 0H17ZM165 164L192 243H444L473 164H165ZM287 760L157 901H247L351 760H287Z" />
<glyph unicode="&#xc1;" horiz-adv-x="637" d="M17 0L283 697H353L619 0H523L319 571L114 0H17ZM165 164L192 243H444L473 164H165ZM287 760L396 901H487L350 760H287Z" />
<glyph unicode="&#xc2;" horiz-adv-x="637" d="M17 0L283 697H353L619 0H523L319 571L114 0H17ZM165 164L192 243H444L473 164H165ZM168 751L319 913L470 751H400L319 840L239 751H168Z" />
<glyph unicode="&#xc3;" horiz-adv-x="637" d="M17 0L283 697H353L619 0H523L319 571L114 0H17ZM165 164L192 243H444L473 164H165ZM385 743Q361 743 345 751T317 772T296 797T276 818T250 827Q231 827 219 807T207 751H157Q157 810 183 842T254 875Q276 875 291
867T317 845T339 820T360 799T386 790Q403 790 415 812T427 871H479Q479 811 454 777T385 743Z" />
<glyph unicode="&#xc4;" horiz-adv-x="637" d="M17 0L283 697H353L619 0H523L319 571L114 0H17ZM165 164L192 243H444L473 164H165ZM362 786V901H462V786H362ZM177 786V901H277V786H177Z" />
<glyph unicode="&#xc5;" horiz-adv-x="637" d="M17 0L283 697H353L619 0H523L319 571L114 0H17ZM165 164L192 243H444L473 164H165ZM320 652Q291 652 268 666T232 703T218 754Q218 782 231 805T268 842T320 856Q348 856 371 842T408 805T422 754Q422 726 408 703T371
666T320 652ZM320 699Q343 699 359 715T375 754Q375 778 360 793T320 809Q296 809 281 793T265 754Q265 731 281 715T320 699Z" />
<glyph unicode="&#xc6;" horiz-adv-x="896" d="M17 0L283 697H849V618H482V390H802V310H482V79H849V0H393V620H337L114 0H17ZM157 164L185 245H415V164H157Z" />
<glyph unicode="&#xc7;" horiz-adv-x="704" d="M372 -12Q276 -12 204 33T91 159T50 349Q50 457 90 538T203 664T372 709Q477 709 554 657T665 513L583 482Q557 550 503 587T372 625Q301 625 248 591T167 496T138 349Q138 264 166 202T248 106T372 72Q449 72 503
110T583 215L665 185Q631 94 554 41T372 -12ZM342 -204Q326 -204 309 -201T276 -189T248 -170L277 -136Q291 -148 308 -154T341 -160Q361 -160 376 -151T391 -123Q391 -108 381 -100T353 -87T315 -80T277 -78L340 8H393L347 -46Q385 -52 414 -69T443 -121Q443 -161
413 -182T342 -204Z" />
<glyph unicode="&#xc8;" horiz-adv-x="585" d="M79 0V697H538V618H167V395H504V316H167V79H538V0H79ZM277 760L147 901H237L341 760H277Z" />
<glyph unicode="&#xc9;" horiz-adv-x="585" d="M79 0V697H538V618H167V395H504V316H167V79H538V0H79ZM277 760L386 901H477L340 760H277Z" />
<glyph unicode="&#xca;" horiz-adv-x="585" d="M79 0V697H538V618H167V395H504V316H167V79H538V0H79ZM158 751L309 913L460 751H390L309 840L229 751H158Z" />
<glyph unicode="&#xcb;" horiz-adv-x="585" d="M79 0V697H538V618H167V395H504V316H167V79H538V0H79ZM352 786V901H452V786H352ZM167 786V901H267V786H167Z" />
<glyph unicode="&#xcc;" horiz-adv-x="246" d="M79 0V697H167V0H79ZM92 760L-38 901H52L156 760H92Z" />
<glyph unicode="&#xcd;" horiz-adv-x="246" d="M79 0V697H167V0H79ZM92 760L201 901H292L155 760H92Z" />
<glyph unicode="&#xce;" horiz-adv-x="246" d="M79 0V697H167V0H79ZM-27 751L124 913L275 751H206L124 840L43 751H-27Z" />
<glyph unicode="&#xcf;" horiz-adv-x="246" d="M79 0V697H167V0H79ZM167 786V901H267V786H167ZM-18 786V901H82V786H-18Z" />
<glyph unicode="&#xd0;" horiz-adv-x="682" d="M79 0V697H272Q443 697 537 605T631 343Q631 177 538 89T271 0H79ZM167 81H263Q352 81 414 107T509 192T542 346Q542 441 510 500T417 588T271 616H167V81ZM260 321V378H546V321H260Z" />
<glyph unicode="&#xd1;" horiz-adv-x="676" d="M79 0V697H172L529 114H509V697H597V0H502L147 584H167V0H79ZM400 743Q376 743 360 751T332 772T311 797T291 818T265 827Q246 827 234 807T222 751H172Q172 810 198 842T269 875Q291 875 306 867T332 845T354 820T375
799T401 790Q418 790 430 812T442 871H494Q494 811 469 777T400 743Z" />
<glyph unicode="&#xd2;" horiz-adv-x="748" d="M372 -12Q276 -12 204 33T91 159T50 348Q50 457 90 538T203 664T372 709Q470 709 543 664T656 538T697 348Q697 240 656 159T542 33T372 -12ZM372 72Q445 72 497 106T579 202T608 348Q608 433 579 495T498 591T372
625Q301 625 248 592T167 496T138 348Q138 263 166 201T248 106T372 72ZM341 760L211 901H301L405 760H341Z" />
<glyph unicode="&#xd3;" horiz-adv-x="748" d="M372 -12Q276 -12 204 33T91 159T50 348Q50 457 90 538T203 664T372 709Q470 709 543 664T656 538T697 348Q697 240 656 159T542 33T372 -12ZM372 72Q445 72 497 106T579 202T608 348Q608 433 579 495T498 591T372
625Q301 625 248 592T167 496T138 348Q138 263 166 201T248 106T372 72ZM341 760L450 901H541L404 760H341Z" />
<glyph unicode="&#xd4;" horiz-adv-x="748" d="M372 -12Q276 -12 204 33T91 159T50 348Q50 457 90 538T203 664T372 709Q470 709 543 664T656 538T697 348Q697 240 656 159T542 33T372 -12ZM372 72Q445 72 497 106T579 202T608 348Q608 433 579 495T498 591T372
625Q301 625 248 592T167 496T138 348Q138 263 166 201T248 106T372 72ZM222 751L373 913L524 751H454L373 840L293 751H222Z" />
<glyph unicode="&#xd5;" horiz-adv-x="748" d="M372 -12Q276 -12 204 33T91 159T50 348Q50 457 90 538T203 664T372 709Q470 709 543 664T656 538T697 348Q697 240 656 159T542 33T372 -12ZM372 72Q445 72 497 106T579 202T608 348Q608 433 579 495T498 591T372
625Q301 625 248 592T167 496T138 348Q138 263 166 201T248 106T372 72ZM439 743Q415 743 399 751T371 772T350 797T330 818T304 827Q285 827 273 807T261 751H211Q211 810 237 842T308 875Q330 875 345 867T371 845T393 820T414 799T440 790Q457 790 469 812T481
871H533Q533 811 508 777T439 743Z" />
<glyph unicode="&#xd6;" horiz-adv-x="748" d="M372 -12Q276 -12 204 33T91 159T50 348Q50 457 90 538T203 664T372 709Q470 709 543 664T656 538T697 348Q697 240 656 159T542 33T372 -12ZM372 72Q445 72 497 106T579 202T608 348Q608 433 579 495T498 591T372
625Q301 625 248 592T167 496T138 348Q138 263 166 201T248 106T372 72ZM416 786V901H516V786H416ZM231 786V901H331V786H231Z" />
<glyph unicode="&#xd7;" horiz-adv-x="560" d="M126 41L74 93L227 246L73 401L125 453L278 299L433 453L485 400L332 246L485 93L433 41L278 194L126 41Z" />
<glyph unicode="&#xd8;" horiz-adv-x="748" d="M372 -12Q276 -12 204 33T91 159T50 348Q50 457 90 538T203 664T372 709Q470 709 543 664T656 538T697 348Q697 240 656 159T542 33T372 -12ZM372 72Q445 72 497 106T579 202T608 348Q608 433 579 495T498 591T372
625Q301 625 248 592T167 496T138 348Q138 263 166 201T248 106T372 72ZM94 0L592 697H651L154 0H94Z" />
<glyph unicode="&#xd9;" horiz-adv-x="656" d="M327 -12Q203 -12 138 55T72 252V697H160V262Q160 199 176 156T230 91T327 69Q387 69 424 91T479 157T496 263V697H583V257Q583 125 518 57T327 -12ZM296 760L166 901H256L360 760H296Z" />
<glyph unicode="&#xda;" horiz-adv-x="656" d="M327 -12Q203 -12 138 55T72 252V697H160V262Q160 199 176 156T230 91T327 69Q387 69 424 91T479 157T496 263V697H583V257Q583 125 518 57T327 -12ZM296 760L405 901H496L359 760H296Z" />
<glyph unicode="&#xdb;" horiz-adv-x="656" d="M327 -12Q203 -12 138 55T72 252V697H160V262Q160 199 176 156T230 91T327 69Q387 69 424 91T479 157T496 263V697H583V257Q583 125 518 57T327 -12ZM177 751L328 913L479 751H409L328 840L248 751H177Z" />
<glyph unicode="&#xdc;" horiz-adv-x="656" d="M327 -12Q203 -12 138 55T72 252V697H160V262Q160 199 176 156T230 91T327 69Q387 69 424 91T479 157T496 263V697H583V257Q583 125 518 57T327 -12ZM371 786V901H471V786H371ZM186 786V901H286V786H186Z" />
<glyph unicode="&#xdd;" horiz-adv-x="602" d="M258 0V269L12 697H112L299 357L490 697H590L346 269V0H258ZM270 760L379 901H470L333 760H270Z" />
<glyph unicode="&#xde;" horiz-adv-x="631" d="M129 0V697H210V598H345Q447 598 504 547T562 403Q562 309 500 256T327 203H210V0H129ZM210 276H327Q400 276 440 307T481 401Q481 465 440 497T327 529H210V276Z" />
<glyph unicode="&#xdf;" horiz-adv-x="634" d="M415 -8Q366 -8 325 9T254 57T212 124L280 155Q290 130 307 109T352 76T414 63Q462 63 487 84T513 138Q513 164 498 179T459 204T406 221T348 238T294 262T255 301T240 362Q240 402 255 426T293 465T343 488T392
505T431 525T446 558Q446 580 429 595T384 618T326 626Q276 626 245 615T196 584T171 543T162 498T160 459V0H72V459Q72 505 82 548T118 627T193 684T320 705Q381 705 428 688T502 639T529 560Q529 524 514 501T476 464T426 441T377 422T338 399T323 362Q323 341
338 329T377 310T430 295T489 279T542 254T581 212T596 146Q596 107 581 78T541 30T483 2T415 -8Z" />
<glyph unicode="&#xe0;" horiz-adv-x="540" d="M396 0L390 99V309Q390 366 359 397T265 428Q225 428 190 412T122 356L61 408Q102 456 155 478T271 501Q368 501 421 451T474 309V0H396ZM233 -8Q177 -8 136 11T72 66T49 147Q49 188 65 216T108 261Q134 278 167
284T238 291H398V227H250Q228 227 204 223T162 206Q149 196 142 181T134 146Q134 107 163 84T241 61Q282 61 315 80T369 132T390 208L425 172Q419 119 393 78T327 15T233 -8ZM242 556L112 697H202L306 556H242Z" />
<glyph unicode="&#xe1;" horiz-adv-x="540" d="M396 0L390 99V309Q390 366 359 397T265 428Q225 428 190 412T122 356L61 408Q102 456 155 478T271 501Q368 501 421 451T474 309V0H396ZM233 -8Q177 -8 136 11T72 66T49 147Q49 188 65 216T108 261Q134 278 167
284T238 291H398V227H250Q228 227 204 223T162 206Q149 196 142 181T134 146Q134 107 163 84T241 61Q282 61 315 80T369 132T390 208L425 172Q419 119 393 78T327 15T233 -8ZM242 556L351 697H442L305 556H242Z" />
<glyph unicode="&#xe2;" horiz-adv-x="540" d="M396 0L390 99V309Q390 366 359 397T265 428Q225 428 190 412T122 356L61 408Q102 456 155 478T271 501Q368 501 421 451T474 309V0H396ZM233 -8Q177 -8 136 11T72 66T49 147Q49 188 65 216T108 261Q134 278 167
284T238 291H398V227H250Q228 227 204 223T162 206Q149 196 142 181T134 146Q134 107 163 84T241 61Q282 61 315 80T369 132T390 208L425 172Q419 119 393 78T327 15T233 -8ZM123 547L274 709L425 547H356L274 636L193 547H123Z" />
<glyph unicode="&#xe3;" horiz-adv-x="540" d="M396 0L390 99V309Q390 366 359 397T265 428Q225 428 190 412T122 356L61 408Q102 456 155 478T271 501Q368 501 421 451T474 309V0H396ZM233 -8Q177 -8 136 11T72 66T49 147Q49 188 65 216T108 261Q134 278 167
284T238 291H398V227H250Q228 227 204 223T162 206Q149 196 142 181T134 146Q134 107 163 84T241 61Q282 61 315 80T369 132T390 208L425 172Q419 119 393 78T327 15T233 -8ZM340 567Q310 567 292 579T261 607T236 635T205 647Q186 647 174 628T162 573H112Q112
634 138 667T209 701Q236 701 253 689T284 660T310 632T341 619Q358 619 370 640T382 697H434Q434 636 409 602T340 567Z" />
<glyph unicode="&#xe4;" horiz-adv-x="540" d="M396 0L390 99V309Q390 366 359 397T265 428Q225 428 190 412T122 356L61 408Q102 456 155 478T271 501Q368 501 421 451T474 309V0H396ZM233 -8Q177 -8 136 11T72 66T49 147Q49 188 65 216T108 261Q134 278 167
284T238 291H398V227H250Q228 227 204 223T162 206Q149 196 142 181T134 146Q134 107 163 84T241 61Q282 61 315 80T369 132T390 208L425 172Q419 119 393 78T327 15T233 -8ZM317 582V697H417V582H317ZM132 582V697H232V582H132Z" />
<glyph unicode="&#xe5;" horiz-adv-x="540" d="M396 0L390 99V309Q390 366 359 397T265 428Q225 428 190 412T122 356L61 408Q102 456 155 478T271 501Q368 501 421 451T474 309V0H396ZM233 -8Q177 -8 136 11T72 66T49 147Q49 188 65 216T108 261Q134 278 167
284T238 291H398V227H250Q228 227 204 223T162 206Q149 196 142 181T134 146Q134 107 163 84T241 61Q282 61 315 80T369 132T390 208L425 172Q419 119 393 78T327 15T233 -8ZM274 536Q245 536 222 550T186 587T172 638Q172 666 185 689T222 726T274 740Q302 740
325 726T362 689T376 638Q376 610 362 587T325 550T274 536ZM274 583Q297 583 313 599T329 638Q329 662 314 677T274 693Q250 693 235 677T219 638Q219 615 235 599T274 583Z" />
<glyph unicode="&#xe6;" horiz-adv-x="867" d="M226 -8Q141 -8 95 35T49 145Q49 188 66 214T112 256T171 277T229 285T272 287H391V309Q391 366 359 397T268 428Q228 428 192 412T126 356L64 408Q111 460 162 480T277 501Q343 501 386 476T445 401Q470 445 510
471T606 498Q665 498 705 480T770 429T806 357T818 272Q818 259 818 245T815 221H470Q473 151 507 111T608 70Q652 70 684 83T744 128L804 76Q774 43 744 25T681 -1T606 -8Q537 -8 490 26T421 122H411Q382 55 337 24T226 -8ZM236 65Q277 65 310 81T365 132T391
218V226H278Q201 226 168 204T135 143Q135 108 161 87T236 65ZM469 283H740Q741 296 735 320T714 368T673 410T606 428Q561 428 531 408T486 354T469 283Z" />
<glyph unicode="&#xe7;" horiz-adv-x="518" d="M277 -8Q222 -8 180 12T108 67T64 149T49 247Q49 298 64 344T108 425T179 481T277 501Q347 501 399 467T477 363L402 334Q388 376 357 402T277 428Q228 428 196 402T149 335T133 247Q133 200 148 159T196 92T277
66Q326 66 357 91T402 160L477 131Q452 61 400 27T277 -8ZM268 -204Q252 -204 235 -201T202 -189T174 -170L203 -136Q217 -148 234 -154T267 -160Q287 -160 302 -151T317 -123Q317 -108 307 -100T279 -87T241 -80T203 -78L266 8H319L273 -46Q311 -52 340 -69T369
-121Q369 -161 339 -182T268 -204Z" />
<glyph unicode="&#xe8;" horiz-adv-x="540" d="M280 -8Q222 -8 179 11T107 66T64 146T49 243Q49 294 63 340T104 423T174 480T272 501Q329 501 370 482T438 428T478 352T491 265Q491 261 491 247T488 221H133Q136 149 175 109T281 69Q324 69 356 83T416 128L475
76Q448 47 418 29T355 1T280 -8ZM407 264Q409 272 409 280T410 296Q410 320 402 344T377 387T335 418T274 430Q231 430 200 410T152 357T132 284H435L407 264ZM241 556L111 697H201L305 556H241Z" />
<glyph unicode="&#xe9;" horiz-adv-x="540" d="M280 -8Q222 -8 179 11T107 66T64 146T49 243Q49 294 63 340T104 423T174 480T272 501Q329 501 370 482T438 428T478 352T491 265Q491 261 491 247T488 221H133Q136 149 175 109T281 69Q324 69 356 83T416 128L475
76Q448 47 418 29T355 1T280 -8ZM407 264Q409 272 409 280T410 296Q410 320 402 344T377 387T335 418T274 430Q231 430 200 410T152 357T132 284H435L407 264ZM241 556L350 697H441L304 556H241Z" />
<glyph unicode="&#xea;" horiz-adv-x="540" d="M280 -8Q222 -8 179 11T107 66T64 146T49 243Q49 294 63 340T104 423T174 480T272 501Q329 501 370 482T438 428T478 352T491 265Q491 261 491 247T488 221H133Q136 149 175 109T281 69Q324 69 356 83T416 128L475
76Q448 47 418 29T355 1T280 -8ZM407 264Q409 272 409 280T410 296Q410 320 402 344T377 387T335 418T274 430Q231 430 200 410T152 357T132 284H435L407 264ZM122 547L273 709L424 547H355L273 636L192 547H122Z" />
<glyph unicode="&#xeb;" horiz-adv-x="540" d="M280 -8Q222 -8 179 11T107 66T64 146T49 243Q49 294 63 340T104 423T174 480T272 501Q329 501 370 482T438 428T478 352T491 265Q491 261 491 247T488 221H133Q136 149 175 109T281 69Q324 69 356 83T416 128L475
76Q448 47 418 29T355 1T280 -8ZM407 264Q409 272 409 280T410 296Q410 320 402 344T377 387T335 418T274 430Q231 430 200 410T152 357T132 284H435L407 264ZM316 582V697H416V582H316ZM131 582V697H231V582H131Z" />
<glyph unicode="&#xec;" horiz-adv-x="226" d="M71 0V493H155V0H71ZM337 556L207 697H297L401 556H337Z" />
<glyph unicode="&#xed;" horiz-adv-x="226" d="M71 0V493H155V0H71ZM81 556L190 697H281L144 556H81Z" />
<glyph unicode="&#xee;" horiz-adv-x="226" d="M71 0V493H155V0H71ZM218 547L369 709L520 547H451L369 636L288 547H218Z" />
<glyph unicode="&#xef;" horiz-adv-x="226" d="M71 0V493H155V0H71ZM412 582V697H512V582H412ZM227 582V697H327V582H227Z" />
<glyph unicode="&#xf0;" horiz-adv-x="619" d="M285 -8Q217 -8 167 20T91 99T64 215Q64 278 85 330T143 419T230 477T336 498Q369 498 396 487T444 457T478 414T499 362Q506 461 479 527T386 629T211 666L217 724Q321 719 390 693T499 622T556 513T573 368Q573
287 555 219T500 99T410 20T285 -8ZM290 65Q345 65 387 91T454 161T485 259Q487 285 481 314T458 370T413 412T344 428Q279 428 234 398T167 320T144 216Q144 169 163 135T215 83T290 65ZM267 541L258 577L591 674L600 638L267 541Z" />
<glyph unicode="&#xf1;" horiz-adv-x="547" d="M72 0V493H157V388L137 381Q151 419 175 445T233 486T308 501Q389 501 435 454T481 313V0H396V282Q396 357 369 392T285 428Q244 428 216 409T172 350T157 246V0H72ZM334 567Q304 567 286 579T255 607T230 635T199
647Q180 647 168 628T156 573H106Q106 634 132 667T203 701Q230 701 247 689T278 660T304 632T335 619Q352 619 364 640T376 697H428Q428 636 403 602T334 567Z" />
<glyph unicode="&#xf2;" horiz-adv-x="577" d="M289 -8Q220 -8 166 24T80 115T49 247Q49 321 79 378T164 468T289 501Q359 501 412 469T497 379T528 247Q528 173 497 116T412 25T289 -8ZM289 67Q336 67 370 89T424 152T443 247Q443 302 424 342T371 405T289 427Q241
427 206 405T152 342T133 247Q133 193 152 153T206 90T289 67ZM257 556L127 697H217L321 556H257Z" />
<glyph unicode="&#xf3;" horiz-adv-x="577" d="M289 -8Q220 -8 166 24T80 115T49 247Q49 321 79 378T164 468T289 501Q359 501 412 469T497 379T528 247Q528 173 497 116T412 25T289 -8ZM289 67Q336 67 370 89T424 152T443 247Q443 302 424 342T371 405T289 427Q241
427 206 405T152 342T133 247Q133 193 152 153T206 90T289 67ZM257 556L366 697H457L320 556H257Z" />
<glyph unicode="&#xf4;" horiz-adv-x="577" d="M289 -8Q220 -8 166 24T80 115T49 247Q49 321 79 378T164 468T289 501Q359 501 412 469T497 379T528 247Q528 173 497 116T412 25T289 -8ZM289 67Q336 67 370 89T424 152T443 247Q443 302 424 342T371 405T289 427Q241
427 206 405T152 342T133 247Q133 193 152 153T206 90T289 67ZM138 547L289 709L440 547H371L289 636L208 547H138Z" />
<glyph unicode="&#xf5;" horiz-adv-x="577" d="M289 -8Q220 -8 166 24T80 115T49 247Q49 321 79 378T164 468T289 501Q359 501 412 469T497 379T528 247Q528 173 497 116T412 25T289 -8ZM289 67Q336 67 370 89T424 152T443 247Q443 302 424 342T371 405T289 427Q241
427 206 405T152 342T133 247Q133 193 152 153T206 90T289 67ZM355 567Q325 567 307 579T276 607T251 635T220 647Q201 647 189 628T177 573H127Q127 634 153 667T224 701Q251 701 268 689T299 660T325 632T356 619Q373 619 385 640T397 697H449Q449 636 424 602T355
567Z" />
<glyph unicode="&#xf6;" horiz-adv-x="577" d="M289 -8Q220 -8 166 24T80 115T49 247Q49 321 79 378T164 468T289 501Q359 501 412 469T497 379T528 247Q528 173 497 116T412 25T289 -8ZM289 67Q336 67 370 89T424 152T443 247Q443 302 424 342T371 405T289 427Q241
427 206 405T152 342T133 247Q133 193 152 153T206 90T289 67ZM332 582V697H432V582H332ZM147 582V697H247V582H147Z" />
<glyph unicode="&#xf7;" horiz-adv-x="560" d="M65 214V281H495V214H65ZM230 31V149H330V31H230ZM230 346V463H330V346H230Z" />
<glyph unicode="&#xf8;" horiz-adv-x="577" d="M289 -8Q220 -8 166 24T80 115T49 247Q49 321 79 378T164 468T289 501Q359 501 412 469T497 379T528 247Q528 173 497 116T412 25T289 -8ZM289 67Q336 67 370 89T424 152T443 247Q443 302 424 342T371 405T289 427Q241
427 206 405T152 342T133 247Q133 193 152 153T206 90T289 67ZM86 208L448 796H491L129 208H86Z" />
<glyph unicode="&#xf9;" horiz-adv-x="547" d="M238 -8Q185 -8 146 13T87 77T66 181V493H150V211Q150 162 162 130T200 82T262 66Q303 66 331 85T375 145T390 248V493H474V0H390V105H411Q390 50 344 21T238 -8ZM237 556L107 697H197L301 556H237Z" />
<glyph unicode="&#xfa;" horiz-adv-x="547" d="M238 -8Q185 -8 146 13T87 77T66 181V493H150V211Q150 162 162 130T200 82T262 66Q303 66 331 85T375 145T390 248V493H474V0H390V105H411Q390 50 344 21T238 -8ZM237 556L346 697H437L300 556H237Z" />
<glyph unicode="&#xfb;" horiz-adv-x="547" d="M238 -8Q185 -8 146 13T87 77T66 181V493H150V211Q150 162 162 130T200 82T262 66Q303 66 331 85T375 145T390 248V493H474V0H390V105H411Q390 50 344 21T238 -8ZM118 547L269 709L420 547H351L269 636L188 547H118Z" />
<glyph unicode="&#xfc;" horiz-adv-x="547" d="M238 -8Q185 -8 146 13T87 77T66 181V493H150V211Q150 162 162 130T200 82T262 66Q303 66 331 85T375 145T390 248V493H474V0H390V105H411Q390 50 344 21T238 -8ZM312 582V697H412V582H312ZM127 582V697H227V582H127Z" />
<glyph unicode="&#xfd;" horiz-adv-x="521" d="M121 -203L215 24L23 493H116L260 109L405 493H497L213 -203H121ZM229 556L338 697H429L292 556H229Z" />
<glyph unicode="&#xfe;" horiz-adv-x="627" d="M104 -204V697H189V347L172 366Q185 410 213 440T279 485T358 501Q423 501 468 467T537 376T561 245Q561 167 535 110T463 23T358 -8Q316 -8 278 8T213 55T175 124L189 147V-204H104ZM335 66Q382 66 413 88T461 151T477
246Q477 301 462 341T415 404T336 427Q287 427 252 403T199 338T181 246Q181 196 199 155T252 90T335 66Z" />
<glyph unicode="&#xff;" horiz-adv-x="521" d="M121 -203L215 24L23 493H116L260 109L405 493H497L213 -203H121ZM304 582V697H404V582H304ZM119 582V697H219V582H119Z" />
<glyph unicode="&#x2013;" horiz-adv-x="412" d="M24 272V335H388V272H24Z" />
<glyph unicode="&#x2014;" horiz-adv-x="1058" d="M24 272V335H1034V272H24Z" />
<glyph unicode="&#x2018;" horiz-adv-x="263" d="M35 414L166 697H223L133 414H35Z" />
<glyph unicode="&#x2019;" horiz-adv-x="263" d="M39 415L129 697H227L96 415H39Z" />
<glyph unicode="&#x201a;" horiz-adv-x="288" d="M50 -154L140 130H238L107 -154H50Z" />
<glyph unicode="&#x201c;" horiz-adv-x="436" d="M210 414L339 697H397L308 414H210ZM34 414L165 697H222L132 414H34Z" />
<glyph unicode="&#x201d;" horiz-adv-x="438" d="M215 415L305 697H402L272 415H215ZM39 415L129 697H227L96 415H39Z" />
<glyph unicode="&#x201e;" horiz-adv-x="387" d="M191 -154L281 130H378L249 -154H191ZM9 -154L99 130H197L66 -154H9Z" />
<glyph unicode="&#x2022;" horiz-adv-x="353" d="M66 137V358H287V137H66Z" />
<glyph unicode="&#x2039;" horiz-adv-x="246" d="M231 60L3 253L231 445V354L104 253L231 151V60Z" />
<glyph unicode="&#x203a;" horiz-adv-x="246" d="M14 60V151L141 253L14 354V445L242 253L14 60Z" />
</font>
</defs>
</svg>
